<?xml version="1.0" encoding="UTF-8" standalone="no"?>
<svg
   width="300"
   height="250"
   viewBox="0 0 300 250"
   version="1.1"
   id="svg92"
   sodipodi:docname="notation-prime-alt.svg"
   inkscape:version="1.4.3 (0d15f75042, 2025-12-25)"
   xmlns:inkscape="http://www.inkscape.org/namespaces/inkscape"
   xmlns:sodipodi="http://sodipodi.sourceforge.net/DTD/sodipodi-0.dtd"
   xmlns="http://www.w3.org/2000/svg"
   xmlns:svg="http://www.w3.org/2000/svg">
  <defs
     id="defs92" />
  <sodipodi:namedview
     id="namedview92"
     pagecolor="#505050"
     bordercolor="#eeeeee"
     borderopacity="1"
     inkscape:showpageshadow="0"
     inkscape:pageopacity="0"
     inkscape:pagecheckerboard="0"
     inkscape:deskcolor="#505050"
     inkscape:zoom="2.9177458"
     inkscape:cx="84.140298"
     inkscape:cy="109.33098"
     inkscape:window-width="1920"
     inkscape:window-height="995"
     inkscape:window-x="0"
     inkscape:window-y="0"
     inkscape:window-maximized="1"
     inkscape:current-layer="svg92"
     showgrid="false" />
  <rect
     style="fill:#ffffff;fill-opacity:1;stroke:none;stroke-width:1.724;stroke-dasharray:none;stroke-opacity:1"
     id="rect93"
     width="300.23178"
     height="251.56406"
     x="-1.3709213"
     y="-1.3709213" />
  <g
     transform="matrix(82,0,0,82,155.05821,105.2184)"
     style="stroke:#000000;stroke-width:0.028;stroke-linecap:round;stroke-linejoin:round"
     id="g66">
    <line
       x1="-0.76069772"
       y1="-0.38034886"
       x2="-1.4944201"
       y2="-0.57586336"
       stroke="#888888"
       stroke-width="0.022"
       stroke-dasharray="0.07, 0.05"
       stroke-linecap="round"
       id="line2" />
    <line
       x1="-0.16861677"
       y1="-0.71359479"
       x2="-0.83693147"
       y2="-0.8497777"
       stroke="#888888"
       stroke-width="0.022"
       stroke-dasharray="0.07, 0.05"
       stroke-linecap="round"
       id="line3" />
    <line
       x1="-0.66773713"
       y1="0.51278824"
       x2="-1.3282467"
       y2="0.25855798"
       stroke="#888888"
       stroke-width="0.022"
       stroke-dasharray="0.07, 0.05"
       stroke-linecap="round"
       id="line4" />
    <line
       x1="-0.15120311"
       y1="0.075601555"
       x2="-0.75717157"
       y2="-0.10853322"
       stroke="#888888"
       stroke-width="0.022"
       stroke-dasharray="0.07, 0.05"
       stroke-linecap="round"
       id="line5" />
    <line
       x1="-0.66773713"
       y1="0.51278824"
       x2="-0.59104264"
       y2="1.2496456"
       stroke="#888888"
       stroke-width="0.022"
       stroke-dasharray="0.07, 0.05"
       stroke-linecap="round"
       id="line6" />
    <line
       x1="0.20009623"
       y1="0.84681743"
       x2="0.17473827"
       y2="1.6175044"
       stroke="#888888"
       stroke-width="0.022"
       stroke-dasharray="0.07, 0.05"
       stroke-linecap="round"
       id="line7" />
    <line
       x1="-0.15120311"
       y1="0.075601555"
       x2="-0.13626076"
       y2="0.75279641"
       stroke="#888888"
       stroke-width="0.022"
       stroke-dasharray="0.07, 0.05"
       stroke-linecap="round"
       id="line8" />
    <line
       x1="0.61972433"
       y1="0.30986217"
       x2="0.55311245"
       y2="1.0212435"
       stroke="#888888"
       stroke-width="0.022"
       stroke-dasharray="0.07, 0.05"
       stroke-linecap="round"
       id="line9" />
    <line
       x1="-0.15120311"
       y1="0.075601555"
       x2="0.49830356"
       y2="-0.47413114"
       stroke="#888888"
       stroke-width="0.022"
       stroke-dasharray="0.07, 0.05"
       stroke-linecap="round"
       id="line10" />
    <line
       x1="0.61972433"
       y1="0.30986217"
       x2="1.1264068"
       y2="-0.33848771"
       stroke="#888888"
       stroke-width="0.022"
       stroke-dasharray="0.07, 0.05"
       stroke-linecap="round"
       id="line11" />
    <line
       x1="-0.16861677"
       y1="-0.71359479"
       x2="0.54132217"
       y2="-1.1131756"
       stroke="#888888"
       stroke-width="0.022"
       stroke-dasharray="0.07, 0.05"
       stroke-linecap="round"
       id="line12" />
    <line
       x1="0.69900352"
       y1="-0.53679919"
       x2="1.2315074"
       y2="-1.0165142"
       stroke="#888888"
       stroke-width="0.022"
       stroke-dasharray="0.07, 0.05"
       stroke-linecap="round"
       id="line13" />
    <polygon
       fill="#00aa44"
       stroke="#000000"
       points="-1.434594,-0.27545336 -1.4944201,-0.57586339 -1.2494525,-0.67791858 -1.2022667,-0.39067198 "
       id="polygon13" />
    <polygon
       fill="#00aa44"
       stroke="#000000"
       points="-1.2022667,-0.39067198 -1.2494525,-0.67791858 -1.0317243,-0.76862565 -0.99484991,-0.49353666 "
       id="polygon14" />
    <polygon
       fill="#00aa44"
       stroke="#000000"
       points="-0.99484991,-0.49353666 -1.0317243,-0.76862565 -0.83693147,-0.84977771 -0.8085411,-0.58593323 "
       id="polygon15" />
    <polygon
       fill="#00aa44"
       stroke="#000000"
       points="-1.3793736,0.0018298904 -1.434594,-0.27545336 -1.2022667,-0.39067198 -1.1585152,-0.12433169 "
       id="polygon16" />
    <polygon
       fill="#00aa44"
       stroke="#000000"
       points="-1.1585152,-0.12433169 -1.2022667,-0.39067198 -0.99484991,-0.49353666 -0.96052038,-0.23743281 "
       id="polygon17" />
    <polygon
       fill="#00aa44"
       stroke="#000000"
       points="-0.96052038,-0.23743281 -0.99484991,-0.49353666 -0.8085411,-0.58593323 -0.78201365,-0.33940171 "
       id="polygon18" />
    <polygon
       fill="#00aa44"
       stroke="#000000"
       points="-1.3282467,0.25855797 -1.3793736,0.0018298904 -1.1585152,-0.12433169 -1.1178361,0.12330454 "
       id="polygon19" />
    <polygon
       fill="#00aa44"
       stroke="#000000"
       points="-1.1178361,0.12330454 -1.1585152,-0.12433169 -0.96052038,-0.23743281 -0.92848105,0.0015857375 "
       id="polygon20" />
    <polygon
       fill="#00aa44"
       stroke="#000000"
       points="-0.92848105,0.0015857375 -0.96052038,-0.23743281 -0.78201365,-0.33940171 -0.75717159,-0.10853322 "
       id="polygon21" />
    <polygon
       fill="#ffd700"
       stroke="#000000"
       points="-0.27305764,0.90224699 -0.13626076,0.75279644 0.08084212,0.83733788 -0.049018203,0.99536737 "
       id="polygon22" />
    <polygon
       fill="#ffd700"
       stroke="#000000"
       points="-0.049018203,0.99536737 0.08084212,0.83733788 0.31027294,0.92667992 0.18840103,1.094049 "
       id="polygon23" />
    <polygon
       fill="#ffd700"
       stroke="#000000"
       points="0.18840103,1.094049 0.31027294,0.92667992 0.55311244,1.0212434 0.44043553,1.1988053 "
       id="polygon24" />
    <polygon
       fill="#ffd700"
       stroke="#000000"
       points="-0.42389238,1.0670339 -0.27305764,0.90224699 -0.049018203,0.99536737 -0.19261138,1.1701086 "
       id="polygon25" />
    <polygon
       fill="#ffd700"
       stroke="#000000"
       points="-0.19261138,1.1701086 -0.049018203,0.99536737 0.18840103,1.094049 0.053235212,1.2796748 "
       id="polygon26" />
    <polygon
       fill="#ffd700"
       stroke="#000000"
       points="0.053235212,1.2796748 0.18840103,1.094049 0.44043553,1.1988053 0.31506811,1.3963656 "
       id="polygon27" />
    <polygon
       fill="#ffd700"
       stroke="#000000"
       points="-0.59104266,1.2496455 -0.42389238,1.0670339 -0.19261138,1.1701086 -0.35223743,1.3643606 "
       id="polygon28" />
    <polygon
       fill="#ffd700"
       stroke="#000000"
       points="-0.35223743,1.3643606 -0.19261138,1.1701086 0.053235212,1.2796748 -0.097525162,1.4867169 "
       id="polygon29" />
    <polygon
       fill="#ffd700"
       stroke="#000000"
       points="-0.097525162,1.4867169 0.053235212,1.2796748 0.31506811,1.3963656 0.17473827,1.6175043 "
       id="polygon30" />
    <polygon
       fill="#ff9500"
       stroke="#000000"
       points="1.1943604,-0.77687073 1.2315074,-1.0165141 0.98937726,-1.0504249 0.96029355,-0.81588536 "
       id="polygon31" />
    <polygon
       fill="#ff9500"
       stroke="#000000"
       points="0.96029355,-0.81588536 0.98937726,-1.0504249 0.75962396,-1.0826022 0.73784843,-0.85296286 "
       id="polygon32" />
    <polygon
       fill="#ff9500"
       stroke="#000000"
       points="0.73784843,-0.85296286 0.75962396,-1.0826022 0.54132219,-1.1131757 0.52618045,-0.88824401 "
       id="polygon33" />
    <polygon
       fill="#ff9500"
       stroke="#000000"
       points="1.1593888,-0.55126116 1.1943604,-0.77687073 0.96029355,-0.81588536 0.93287091,-0.59474114 "
       id="polygon34" />
    <polygon
       fill="#ff9500"
       stroke="#000000"
       points="0.93287091,-0.59474114 0.96029355,-0.81588536 0.73784843,-0.85296286 0.71728656,-0.63612244 "
       id="polygon35" />
    <polygon
       fill="#ff9500"
       stroke="#000000"
       points="0.71728656,-0.63612244 0.73784843,-0.85296286 0.52618045,-0.88824401 0.51186274,-0.67555344 "
       id="polygon36" />
    <polygon
       fill="#ff9500"
       stroke="#000000"
       points="1.1264068,-0.33848772 1.1593888,-0.55126116 0.93287091,-0.59474114 0.90697098,-0.38587647 "
       id="polygon37" />
    <polygon
       fill="#ff9500"
       stroke="#000000"
       points="0.90697098,-0.38587647 0.93287091,-0.59474114 0.71728656,-0.63612244 0.69783962,-0.43103989 "
       id="polygon38" />
    <polygon
       fill="#ff9500"
       stroke="#000000"
       points="0.69783962,-0.43103989 0.71728656,-0.63612244 0.51186274,-0.67555344 0.49830358,-0.47413114 "
       id="polygon39" />
    <polygon
       fill="#0066ff"
       stroke="#000000"
       stroke-width="0.03"
       points="0.67041554,-0.23149413 0.69900352,-0.53679919 0.56454496,-0.41566997 0.53994708,-0.095688905 "
       id="polygon40" />
    <polygon
       fill="#0066ff"
       stroke="#000000"
       stroke-width="0.03"
       points="0.53994708,-0.095688905 0.56454496,-0.41566997 0.41036235,-0.27677202 0.3912321,0.0591092 "
       id="polygon41" />
    <polygon
       fill="#0066ff"
       stroke="#000000"
       stroke-width="0.03"
       points="0.3912321,0.0591092 0.41036235,-0.27677202 0.23177213,-0.11588607 0.22015504,0.23718409 "
       id="polygon42" />
    <polygon
       fill="#0066ff"
       stroke="#000000"
       stroke-width="0.03"
       points="0.64407408,0.049819303 0.67041554,-0.23149413 0.53994708,-0.095688905 0.51740322,0.19757247 "
       id="polygon43" />
    <polygon
       fill="#0066ff"
       stroke="#000000"
       stroke-width="0.03"
       points="0.51740322,0.19757247 0.53994708,-0.095688905 0.3912321,0.0591092 0.37380603,0.3650691 "
       id="polygon44" />
    <polygon
       fill="#0066ff"
       stroke="#000000"
       stroke-width="0.03"
       points="0.37380603,0.3650691 0.3912321,0.0591092 0.22015504,0.23718409 0.20964693,0.55654982 "
       id="polygon45" />
    <polygon
       fill="#0066ff"
       stroke="#000000"
       stroke-width="0.03"
       points="0.61972434,0.30986217 0.64407408,0.049819303 0.51740322,0.19757247 0.49666642,0.46732683 "
       id="polygon46" />
    <polygon
       fill="#0066ff"
       stroke="#000000"
       stroke-width="0.03"
       points="0.49666642,0.46732683 0.51740322,0.19757247 0.37380603,0.3650691 0.35786612,0.64493541 "
       id="polygon47" />
    <polygon
       fill="#0066ff"
       stroke="#000000"
       stroke-width="0.03"
       points="0.35786612,0.64493541 0.37380603,0.3650691 0.20964693,0.55654982 0.20009624,0.84681744 "
       id="polygon48" />
    <polygon
       fill="#ffffff"
       stroke="#000000"
       stroke-width="0.03"
       points="-0.34185881,-0.61608751 -0.16861678,-0.71359477 0.10069877,-0.65871615 -0.06182075,-0.55416749 "
       id="polygon49" />
    <polygon
       fill="#ffffff"
       stroke="#000000"
       stroke-width="0.03"
       points="-0.06182075,-0.55416749 0.10069877,-0.65871615 0.38919713,-0.59992865 0.23947516,-0.48754709 "
       id="polygon50" />
    <polygon
       fill="#ffffff"
       stroke="#000000"
       stroke-width="0.03"
       points="0.23947516,-0.48754709 0.38919713,-0.59992865 0.69900352,-0.53679919 0.56454496,-0.41566997 "
       id="polygon51" />
    <polygon
       fill="#ffffff"
       stroke="#000000"
       stroke-width="0.03"
       points="-0.53764954,-0.50588897 -0.34185881,-0.61608751 -0.06182075,-0.55416749 -0.24631919,-0.4354798 "
       id="polygon52" />
    <polygon
       fill="#ffffff"
       stroke="#000000"
       stroke-width="0.03"
       points="-0.24631919,-0.4354798 -0.06182075,-0.55416749 0.23947516,-0.48754709 0.068682389,-0.35934975 "
       id="polygon53" />
    <polygon
       fill="#ffffff"
       stroke="#000000"
       stroke-width="0.03"
       points="0.068682389,-0.35934975 0.23947516,-0.48754709 0.56454496,-0.41566997 0.41036235,-0.27677202 "
       id="polygon54" />
    <polygon
       fill="#ffffff"
       stroke="#000000"
       stroke-width="0.03"
       points="-0.76069775,-0.38034888 -0.53764954,-0.50588897 -0.24631919,-0.4354798 -0.45757848,-0.29957688 "
       id="polygon55" />
    <polygon
       fill="#ffffff"
       stroke="#000000"
       stroke-width="0.03"
       points="-0.45757848,-0.29957688 -0.24631919,-0.4354798 0.068682389,-0.35934975 -0.12796589,-0.21174522 "
       id="polygon56" />
    <polygon
       fill="#ffffff"
       stroke="#000000"
       stroke-width="0.03"
       points="-0.12796589,-0.21174522 0.068682389,-0.35934975 0.41036235,-0.27677202 0.23177213,-0.11588607 "
       id="polygon57" />
    <polygon
       fill="#ff3333"
       stroke="#000000"
       stroke-width="0.03"
       points="-0.72696249,-0.056230744 -0.76069775,-0.38034888 -0.45757848,-0.29957688 -0.4364754,0.03376149 "
       id="polygon58" />
    <polygon
       fill="#ff3333"
       stroke="#000000"
       stroke-width="0.03"
       points="-0.4364754,0.03376149 -0.45757848,-0.29957688 -0.12796589,-0.21174522 -0.1218187,0.13124141 "
       id="polygon59" />
    <polygon
       fill="#ff3333"
       stroke="#000000"
       stroke-width="0.03"
       points="-0.1218187,0.13124141 -0.12796589,-0.21174522 0.23177213,-0.11588607 0.22015504,0.23718409 "
       id="polygon60" />
    <polygon
       fill="#ff3333"
       stroke="#000000"
       stroke-width="0.03"
       points="-0.69609233,0.24036031 -0.72696249,-0.056230744 -0.4364754,0.03376149 -0.41723301,0.33770885 "
       id="polygon61" />
    <polygon
       fill="#ff3333"
       stroke="#000000"
       stroke-width="0.03"
       points="-0.41723301,0.33770885 -0.4364754,0.03376149 -0.1218187,0.13124141 -0.11623504,0.44278589 "
       id="polygon62" />
    <polygon
       fill="#ff3333"
       stroke="#000000"
       stroke-width="0.03"
       points="-0.11623504,0.44278589 -0.1218187,0.13124141 0.22015504,0.23718409 0.20964693,0.55654982 "
       id="polygon63" />
    <polygon
       fill="#ff3333"
       stroke="#000000"
       stroke-width="0.03"
       points="-0.66773715,0.51278821 -0.69609233,0.24036031 -0.41723301,0.33770885 -0.39961561,0.61598824 "
       id="polygon64" />
    <polygon
       fill="#ff3333"
       stroke="#000000"
       stroke-width="0.03"
       points="-0.39961561,0.61598824 -0.41723301,0.33770885 -0.11623504,0.44278589 -0.11114081,0.72702224 "
       id="polygon65" />
    <polygon
       fill="#ff3333"
       stroke="#000000"
       stroke-width="0.03"
       points="-0.11114081,0.72702224 -0.11623504,0.44278589 0.20964693,0.55654982 0.20009624,0.84681744 "
       id="polygon66" />
    <path
       style="fill:#595959;fill-opacity:1;stroke:#b8960f;stroke-width:0.0297284;stroke-dasharray:none;stroke-opacity:1"
       d="M -0.04681697,0.65027387 -0.52802305,0.4668771"
       id="path1-5"
       sodipodi:nodetypes="cc" />
    <path
       id="polygon68-6"
       style="fill:#ffd700;fill-opacity:1;stroke:#b8960f;stroke-width:0.0245283;stroke-dasharray:none;stroke-opacity:1"
       d="m -0.46492913,0.54160024 0.001106,-0.11256949 -0.10384602,0.0193344 z"
       sodipodi:nodetypes="cccc" />
  </g>
  <path
     style="fill:#595959;fill-opacity:1;stroke:#9a9a9a;stroke-width:2.22717;stroke-linecap:round;stroke-dasharray:none;stroke-opacity:1"
     d="m 153.08466,99.752092 -44.7625,-12.08332"
     id="path1"
     sodipodi:nodetypes="cc" />
  <path
     id="polygon68"
     style="fill:#ffffff;fill-opacity:1;stroke:#9a9a9a;stroke-width:1.8376;stroke-linecap:round;stroke-linejoin:round;stroke-dasharray:none;stroke-opacity:1"
     d="m 148.82303,103.14155 0.009,-8.970807 10.3175,6.841797 z"
     sodipodi:nodetypes="cccc" />
  <path
     style="fill:#595959;fill-opacity:1;stroke:#003399;stroke-width:2.21492;stroke-linecap:round;stroke-dasharray:none;stroke-opacity:1"
     d="m 163.57031,154.2577 -0.0156,-46.99883"
     id="path1-6"
     sodipodi:nodetypes="cc" />
  <path
     id="polygon68-75"
     style="fill:#0066ff;fill-opacity:1;stroke:#003399;stroke-width:1.8275;stroke-linecap:round;stroke-linejoin:round;stroke-dasharray:none;stroke-opacity:1"
     d="m 159.13195,150.60153 8.53346,2.44791 -4.23564,8.76484 z"
     sodipodi:nodetypes="cccc" />
  <path
     style="fill:#595959;fill-opacity:1;stroke:#006633;stroke-width:2.20012;stroke-linecap:round;stroke-dasharray:none;stroke-opacity:1"
     d="m 104.79387,137.73891 -2.4868,-41.428048"
     id="path1-6-9"
     sodipodi:nodetypes="cc" />
  <path
     id="polygon68-75-1"
     style="fill:#00aa44;fill-opacity:1;stroke:#006633;stroke-width:2.21235;stroke-linecap:round;stroke-linejoin:round;stroke-dasharray:none;stroke-opacity:1"
     d="m 98.43375,94.08151 7.48816,2.716811 L 102.32,84.706327 Z"
     sodipodi:nodetypes="cccc" />
  <path
     style="baseline-shift:baseline;display:inline;overflow:visible;opacity:1;fill:#ff3333;fill-opacity:1;stroke:#960000;stroke-width:1.516;stroke-linecap:round;stroke-dasharray:none;stroke-opacity:1;enable-background:accumulate;stop-color:#000000;stop-opacity:1"
     d="m 152.01719,124.37394 -0.36363,-1.81742 -0.49504,-1.83653 -0.62521,-1.79113 -0.73934,-1.71024 -0.84562,-1.63864 -0.96988,-1.56213 -1.08194,-1.44551 -1.18359,-1.34794 -1.28629,-1.21849 -1.38698,-1.09208 -1.47311,-0.93374 -1.5484,-0.77759 -1.61938,-0.6125 -1.67469,-0.42547 -1.70882,-0.24117 -1.74035,-0.0466 -1.75505,0.15714 -1.72908,0.35401 -1.70975,0.54729 -1.67704,0.74878 -1.60919,0.92865 -1.53705,1.10051 -1.46593,1.28236 -1.36459,1.44212 -1.25311,1.5843 -1.14686,1.72761 -1.00861,1.8456 -0.87957,1.94901 -0.74552,2.03608 -0.58987,2.11697 -0.43361,2.17084 -0.27517,2.14204 a 1.7896448,1.7203256 17.844491 0 0 1.54878,1.9606 1.7896448,1.7203256 17.844491 0 0 1.99121,-1.45658 l 0.25976,-2.0286 0.38629,-1.93726 0.52233,-1.87199 0.65771,-1.80004 0.77847,-1.72118 0.88059,-1.61044 0.99084,-1.49207 1.07329,-1.35804 1.15178,-1.21769 1.2205,-1.06651 1.26385,-0.9062 1.30434,-0.75296 1.33215,-0.59429 1.33641,-0.42796 1.34001,-0.27359 1.3384,-0.12019 1.31744,0.0356 1.30233,0.18435 1.27242,0.32171 1.24155,0.4707 1.21323,0.60989 1.15836,0.73266 1.10723,0.87273 1.04433,0.98795 0.98005,1.11811 0.90538,1.20836 0.81514,1.3155 0.72646,1.4059 0.64212,1.48664 0.5431,1.55561 0.43324,1.60824 0.34199,1.70683 a 1.7896448,1.7203256 17.844491 0 0 2.09047,1.41073 1.7896448,1.7203256 17.844491 0 0 1.41066,-1.99229 z"
     id="path70" />
  <path
     id="polygon68-75-1-7"
     style="fill:#ff3333;fill-opacity:1;stroke:#960000;stroke-width:2;stroke-linecap:round;stroke-linejoin:round;stroke-dasharray:none;stroke-opacity:1"
     d="m 121.02252,126.01069 -9.60823,0.80326 5.92584,9.68267 z"
     sodipodi:nodetypes="cccc" />
  <circle
     cx="133.40968"
     cy="83.163239"
     fill="#555555"
     stroke="#ffffff"
     stroke-width="1.60104"
     id="circle68"
     r="8.9657974"
     style="fill:#9a9a9a;fill-opacity:1;stroke-width:1.701;stroke-dasharray:none;stroke:#e9e9e9;stroke-opacity:1" />
  <circle
     cx="175.64809"
     cy="135.39813"
     r="9.8310509"
     fill="#003399"
     stroke="#ffffff"
     stroke-width="1.75554"
     id="circle67"
     style="fill:#003399;fill-opacity:1;stroke-width:1.756;stroke-dasharray:none;stroke:#448fff;stroke-opacity:1" />
  <text
     x="175.64809"
     y="139.26031"
     text-anchor="middle"
     font-family="Arial, sans-serif"
     font-size="11.2355px"
     font-weight="bold"
     fill="#ffffff"
     id="text67"
     style="stroke-width:0.702218">R'</text>
  <text
     x="133.40968"
     y="86.685516"
     text-anchor="middle"
     font-family="Arial, sans-serif"
     font-size="10.2466px"
     font-weight="bold"
     fill="#ffffff"
     id="text68"
     style="stroke-width:0.640414">U'</text>
  <circle
     cx="132.64291"
     cy="124.26137"
     r="10.093775"
     fill="#cc0000"
     stroke="#ffffff"
     stroke-width="2.81452"
     id="circle69"
     style="stroke-width:1.7;stroke-dasharray:none;stroke:#ff6b6b;stroke-opacity:1" />
  <text
     x="132.64291"
     y="128.22676"
     text-anchor="middle"
     font-family="Arial, sans-serif"
     font-size="11.5357px"
     font-weight="bold"
     fill="#ffffff"
     id="text69"
     style="stroke-width:0.720984">F'</text>
  <ellipse
     cx="91.518753"
     cy="112.81317"
     fill="#006633"
     stroke="#ffffff"
     stroke-width="3.22432"
     id="circle70"
     rx="9.5082226"
     ry="9.7652702"
     style="stroke-width:1.724;stroke-dasharray:none;stroke:#00aa44;stroke-opacity:1" />
  <text
     x="92.747581"
     y="115.10409"
     text-anchor="middle"
     font-family="Arial, sans-serif"
     font-size="11.0125px"
     font-weight="bold"
     fill="#ffffff"
     id="text70"
     style="stroke-width:0.688278"
     transform="scale(0.9867509,1.013427)">L'</text>
  <circle
     cx="131.69229"
     cy="163.19888"
     r="9.2407475"
     fill="#b8960f"
     stroke="#ffffff"
     stroke-width="2.71984"
     id="circle71"
     style="stroke-width:1.7;stroke-dasharray:none;stroke:#ffd700;stroke-opacity:1" />
  <text
     x="131.69229"
     y="166.82922"
     text-anchor="middle"
     font-family="Arial, sans-serif"
     font-size="10.5609px"
     font-weight="bold"
     fill="#ffffff"
     id="text71"
     style="stroke-width:0.660053">D'</text>
</svg>
