<?xml version="1.0" encoding="UTF-8" standalone="no"?>
<svg
   width="300"
   height="250"
   viewBox="0 0 300 250"
   version="1.1"
   id="svg92"
   sodipodi:docname="notation-prime.svg"
   inkscape:version="1.4.3 (0d15f75042, 2025-12-25)"
   xmlns:inkscape="http://www.inkscape.org/namespaces/inkscape"
   xmlns:sodipodi="http://sodipodi.sourceforge.net/DTD/sodipodi-0.dtd"
   xmlns="http://www.w3.org/2000/svg"
   xmlns:svg="http://www.w3.org/2000/svg">
  <defs
     id="defs92" />
  <sodipodi:namedview
     id="namedview92"
     pagecolor="#505050"
     bordercolor="#eeeeee"
     borderopacity="1"
     inkscape:showpageshadow="0"
     inkscape:pageopacity="0"
     inkscape:pagecheckerboard="0"
     inkscape:deskcolor="#505050"
     inkscape:zoom="2.9177459"
     inkscape:cx="138.46305"
     inkscape:cy="161.42598"
     inkscape:window-width="1920"
     inkscape:window-height="995"
     inkscape:window-x="0"
     inkscape:window-y="0"
     inkscape:window-maximized="1"
     inkscape:current-layer="svg92" />
  <rect
     style="fill:#ffffff;fill-opacity:1;stroke:none;stroke-width:1.724;stroke-dasharray:none;stroke-opacity:1"
     id="rect93"
     width="300.23178"
     height="251.56406"
     x="-1.3709213"
     y="-1.3709213" />
  <g
     transform="matrix(82,0,0,82,155.05821,105.2184)"
     style="stroke:#000000;stroke-width:0.028;stroke-linecap:round;stroke-linejoin:round"
     id="g66">
    <line
       x1="-0.76069772"
       y1="-0.38034886"
       x2="-1.4944201"
       y2="-0.57586336"
       stroke="#888888"
       stroke-width="0.022"
       stroke-dasharray="0.07, 0.05"
       stroke-linecap="round"
       id="line2" />
    <line
       x1="-0.16861677"
       y1="-0.71359479"
       x2="-0.83693147"
       y2="-0.8497777"
       stroke="#888888"
       stroke-width="0.022"
       stroke-dasharray="0.07, 0.05"
       stroke-linecap="round"
       id="line3" />
    <line
       x1="-0.66773713"
       y1="0.51278824"
       x2="-1.3282467"
       y2="0.25855798"
       stroke="#888888"
       stroke-width="0.022"
       stroke-dasharray="0.07, 0.05"
       stroke-linecap="round"
       id="line4" />
    <line
       x1="-0.15120311"
       y1="0.075601555"
       x2="-0.75717157"
       y2="-0.10853322"
       stroke="#888888"
       stroke-width="0.022"
       stroke-dasharray="0.07, 0.05"
       stroke-linecap="round"
       id="line5" />
    <line
       x1="-0.66773713"
       y1="0.51278824"
       x2="-0.59104264"
       y2="1.2496456"
       stroke="#888888"
       stroke-width="0.022"
       stroke-dasharray="0.07, 0.05"
       stroke-linecap="round"
       id="line6" />
    <line
       x1="0.20009623"
       y1="0.84681743"
       x2="0.17473827"
       y2="1.6175044"
       stroke="#888888"
       stroke-width="0.022"
       stroke-dasharray="0.07, 0.05"
       stroke-linecap="round"
       id="line7" />
    <line
       x1="-0.15120311"
       y1="0.075601555"
       x2="-0.13626076"
       y2="0.75279641"
       stroke="#888888"
       stroke-width="0.022"
       stroke-dasharray="0.07, 0.05"
       stroke-linecap="round"
       id="line8" />
    <line
       x1="0.61972433"
       y1="0.30986217"
       x2="0.55311245"
       y2="1.0212435"
       stroke="#888888"
       stroke-width="0.022"
       stroke-dasharray="0.07, 0.05"
       stroke-linecap="round"
       id="line9" />
    <line
       x1="-0.15120311"
       y1="0.075601555"
       x2="0.49830356"
       y2="-0.47413114"
       stroke="#888888"
       stroke-width="0.022"
       stroke-dasharray="0.07, 0.05"
       stroke-linecap="round"
       id="line10" />
    <line
       x1="0.61972433"
       y1="0.30986217"
       x2="1.1264068"
       y2="-0.33848771"
       stroke="#888888"
       stroke-width="0.022"
       stroke-dasharray="0.07, 0.05"
       stroke-linecap="round"
       id="line11" />
    <line
       x1="-0.16861677"
       y1="-0.71359479"
       x2="0.54132217"
       y2="-1.1131756"
       stroke="#888888"
       stroke-width="0.022"
       stroke-dasharray="0.07, 0.05"
       stroke-linecap="round"
       id="line12" />
    <line
       x1="0.69900352"
       y1="-0.53679919"
       x2="1.2315074"
       y2="-1.0165142"
       stroke="#888888"
       stroke-width="0.022"
       stroke-dasharray="0.07, 0.05"
       stroke-linecap="round"
       id="line13" />
    <polygon
       fill="#00aa44"
       stroke="#000000"
       points="-1.434594,-0.27545336 -1.4944201,-0.57586339 -1.2494525,-0.67791858 -1.2022667,-0.39067198 "
       id="polygon13" />
    <polygon
       fill="#00aa44"
       stroke="#000000"
       points="-1.2022667,-0.39067198 -1.2494525,-0.67791858 -1.0317243,-0.76862565 -0.99484991,-0.49353666 "
       id="polygon14" />
    <polygon
       fill="#00aa44"
       stroke="#000000"
       points="-0.99484991,-0.49353666 -1.0317243,-0.76862565 -0.83693147,-0.84977771 -0.8085411,-0.58593323 "
       id="polygon15" />
    <polygon
       fill="#00aa44"
       stroke="#000000"
       points="-1.3793736,0.0018298904 -1.434594,-0.27545336 -1.2022667,-0.39067198 -1.1585152,-0.12433169 "
       id="polygon16" />
    <polygon
       fill="#00aa44"
       stroke="#000000"
       points="-1.1585152,-0.12433169 -1.2022667,-0.39067198 -0.99484991,-0.49353666 -0.96052038,-0.23743281 "
       id="polygon17" />
    <polygon
       fill="#00aa44"
       stroke="#000000"
       points="-0.96052038,-0.23743281 -0.99484991,-0.49353666 -0.8085411,-0.58593323 -0.78201365,-0.33940171 "
       id="polygon18" />
    <polygon
       fill="#00aa44"
       stroke="#000000"
       points="-1.3282467,0.25855797 -1.3793736,0.0018298904 -1.1585152,-0.12433169 -1.1178361,0.12330454 "
       id="polygon19" />
    <polygon
       fill="#00aa44"
       stroke="#000000"
       points="-1.1178361,0.12330454 -1.1585152,-0.12433169 -0.96052038,-0.23743281 -0.92848105,0.0015857375 "
       id="polygon20" />
    <polygon
       fill="#00aa44"
       stroke="#000000"
       points="-0.92848105,0.0015857375 -0.96052038,-0.23743281 -0.78201365,-0.33940171 -0.75717159,-0.10853322 "
       id="polygon21" />
    <polygon
       fill="#ffd700"
       stroke="#000000"
       points="-0.27305764,0.90224699 -0.13626076,0.75279644 0.08084212,0.83733788 -0.049018203,0.99536737 "
       id="polygon22" />
    <polygon
       fill="#ffd700"
       stroke="#000000"
       points="-0.049018203,0.99536737 0.08084212,0.83733788 0.31027294,0.92667992 0.18840103,1.094049 "
       id="polygon23" />
    <polygon
       fill="#ffd700"
       stroke="#000000"
       points="0.18840103,1.094049 0.31027294,0.92667992 0.55311244,1.0212434 0.44043553,1.1988053 "
       id="polygon24" />
    <polygon
       fill="#ffd700"
       stroke="#000000"
       points="-0.42389238,1.0670339 -0.27305764,0.90224699 -0.049018203,0.99536737 -0.19261138,1.1701086 "
       id="polygon25" />
    <polygon
       fill="#ffd700"
       stroke="#000000"
       points="-0.19261138,1.1701086 -0.049018203,0.99536737 0.18840103,1.094049 0.053235212,1.2796748 "
       id="polygon26" />
    <polygon
       fill="#ffd700"
       stroke="#000000"
       points="0.053235212,1.2796748 0.18840103,1.094049 0.44043553,1.1988053 0.31506811,1.3963656 "
       id="polygon27" />
    <polygon
       fill="#ffd700"
       stroke="#000000"
       points="-0.59104266,1.2496455 -0.42389238,1.0670339 -0.19261138,1.1701086 -0.35223743,1.3643606 "
       id="polygon28" />
    <polygon
       fill="#ffd700"
       stroke="#000000"
       points="-0.35223743,1.3643606 -0.19261138,1.1701086 0.053235212,1.2796748 -0.097525162,1.4867169 "
       id="polygon29" />
    <polygon
       fill="#ffd700"
       stroke="#000000"
       points="-0.097525162,1.4867169 0.053235212,1.2796748 0.31506811,1.3963656 0.17473827,1.6175043 "
       id="polygon30" />
    <polygon
       fill="#ff9500"
       stroke="#000000"
       points="1.1943604,-0.77687073 1.2315074,-1.0165141 0.98937726,-1.0504249 0.96029355,-0.81588536 "
       id="polygon31" />
    <polygon
       fill="#ff9500"
       stroke="#000000"
       points="0.96029355,-0.81588536 0.98937726,-1.0504249 0.75962396,-1.0826022 0.73784843,-0.85296286 "
       id="polygon32" />
    <polygon
       fill="#ff9500"
       stroke="#000000"
       points="0.73784843,-0.85296286 0.75962396,-1.0826022 0.54132219,-1.1131757 0.52618045,-0.88824401 "
       id="polygon33" />
    <polygon
       fill="#ff9500"
       stroke="#000000"
       points="1.1593888,-0.55126116 1.1943604,-0.77687073 0.96029355,-0.81588536 0.93287091,-0.59474114 "
       id="polygon34" />
    <polygon
       fill="#ff9500"
       stroke="#000000"
       points="0.93287091,-0.59474114 0.96029355,-0.81588536 0.73784843,-0.85296286 0.71728656,-0.63612244 "
       id="polygon35" />
    <polygon
       fill="#ff9500"
       stroke="#000000"
       points="0.71728656,-0.63612244 0.73784843,-0.85296286 0.52618045,-0.88824401 0.51186274,-0.67555344 "
       id="polygon36" />
    <polygon
       fill="#ff9500"
       stroke="#000000"
       points="1.1264068,-0.33848772 1.1593888,-0.55126116 0.93287091,-0.59474114 0.90697098,-0.38587647 "
       id="polygon37" />
    <polygon
       fill="#ff9500"
       stroke="#000000"
       points="0.90697098,-0.38587647 0.93287091,-0.59474114 0.71728656,-0.63612244 0.69783962,-0.43103989 "
       id="polygon38" />
    <polygon
       fill="#ff9500"
       stroke="#000000"
       points="0.69783962,-0.43103989 0.71728656,-0.63612244 0.51186274,-0.67555344 0.49830358,-0.47413114 "
       id="polygon39" />
    <polygon
       fill="#0066ff"
       stroke="#000000"
       stroke-width="0.03"
       points="0.67041554,-0.23149413 0.69900352,-0.53679919 0.56454496,-0.41566997 0.53994708,-0.095688905 "
       id="polygon40" />
    <polygon
       fill="#0066ff"
       stroke="#000000"
       stroke-width="0.03"
       points="0.53994708,-0.095688905 0.56454496,-0.41566997 0.41036235,-0.27677202 0.3912321,0.0591092 "
       id="polygon41" />
    <polygon
       fill="#0066ff"
       stroke="#000000"
       stroke-width="0.03"
       points="0.3912321,0.0591092 0.41036235,-0.27677202 0.23177213,-0.11588607 0.22015504,0.23718409 "
       id="polygon42" />
    <polygon
       fill="#0066ff"
       stroke="#000000"
       stroke-width="0.03"
       points="0.64407408,0.049819303 0.67041554,-0.23149413 0.53994708,-0.095688905 0.51740322,0.19757247 "
       id="polygon43" />
    <polygon
       fill="#0066ff"
       stroke="#000000"
       stroke-width="0.03"
       points="0.51740322,0.19757247 0.53994708,-0.095688905 0.3912321,0.0591092 0.37380603,0.3650691 "
       id="polygon44" />
    <polygon
       fill="#0066ff"
       stroke="#000000"
       stroke-width="0.03"
       points="0.37380603,0.3650691 0.3912321,0.0591092 0.22015504,0.23718409 0.20964693,0.55654982 "
       id="polygon45" />
    <polygon
       fill="#0066ff"
       stroke="#000000"
       stroke-width="0.03"
       points="0.61972434,0.30986217 0.64407408,0.049819303 0.51740322,0.19757247 0.49666642,0.46732683 "
       id="polygon46" />
    <polygon
       fill="#0066ff"
       stroke="#000000"
       stroke-width="0.03"
       points="0.49666642,0.46732683 0.51740322,0.19757247 0.37380603,0.3650691 0.35786612,0.64493541 "
       id="polygon47" />
    <polygon
       fill="#0066ff"
       stroke="#000000"
       stroke-width="0.03"
       points="0.35786612,0.64493541 0.37380603,0.3650691 0.20964693,0.55654982 0.20009624,0.84681744 "
       id="polygon48" />
    <polygon
       fill="#ffffff"
       stroke="#000000"
       stroke-width="0.03"
       points="-0.34185881,-0.61608751 -0.16861678,-0.71359477 0.10069877,-0.65871615 -0.06182075,-0.55416749 "
       id="polygon49" />
    <polygon
       fill="#ffffff"
       stroke="#000000"
       stroke-width="0.03"
       points="-0.06182075,-0.55416749 0.10069877,-0.65871615 0.38919713,-0.59992865 0.23947516,-0.48754709 "
       id="polygon50" />
    <polygon
       fill="#ffffff"
       stroke="#000000"
       stroke-width="0.03"
       points="0.23947516,-0.48754709 0.38919713,-0.59992865 0.69900352,-0.53679919 0.56454496,-0.41566997 "
       id="polygon51" />
    <polygon
       fill="#ffffff"
       stroke="#000000"
       stroke-width="0.03"
       points="-0.53764954,-0.50588897 -0.34185881,-0.61608751 -0.06182075,-0.55416749 -0.24631919,-0.4354798 "
       id="polygon52" />
    <polygon
       fill="#ffffff"
       stroke="#000000"
       stroke-width="0.03"
       points="-0.24631919,-0.4354798 -0.06182075,-0.55416749 0.23947516,-0.48754709 0.068682389,-0.35934975 "
       id="polygon53" />
    <polygon
       fill="#ffffff"
       stroke="#000000"
       stroke-width="0.03"
       points="0.068682389,-0.35934975 0.23947516,-0.48754709 0.56454496,-0.41566997 0.41036235,-0.27677202 "
       id="polygon54" />
    <polygon
       fill="#ffffff"
       stroke="#000000"
       stroke-width="0.03"
       points="-0.76069775,-0.38034888 -0.53764954,-0.50588897 -0.24631919,-0.4354798 -0.45757848,-0.29957688 "
       id="polygon55" />
    <polygon
       fill="#ffffff"
       stroke="#000000"
       stroke-width="0.03"
       points="-0.45757848,-0.29957688 -0.24631919,-0.4354798 0.068682389,-0.35934975 -0.12796589,-0.21174522 "
       id="polygon56" />
    <polygon
       fill="#ffffff"
       stroke="#000000"
       stroke-width="0.03"
       points="-0.12796589,-0.21174522 0.068682389,-0.35934975 0.41036235,-0.27677202 0.23177213,-0.11588607 "
       id="polygon57" />
    <polygon
       fill="#ff3333"
       stroke="#000000"
       stroke-width="0.03"
       points="-0.72696249,-0.056230744 -0.76069775,-0.38034888 -0.45757848,-0.29957688 -0.4364754,0.03376149 "
       id="polygon58" />
    <polygon
       fill="#ff3333"
       stroke="#000000"
       stroke-width="0.03"
       points="-0.4364754,0.03376149 -0.45757848,-0.29957688 -0.12796589,-0.21174522 -0.1218187,0.13124141 "
       id="polygon59" />
    <polygon
       fill="#ff3333"
       stroke="#000000"
       stroke-width="0.03"
       points="-0.1218187,0.13124141 -0.12796589,-0.21174522 0.23177213,-0.11588607 0.22015504,0.23718409 "
       id="polygon60" />
    <polygon
       fill="#ff3333"
       stroke="#000000"
       stroke-width="0.03"
       points="-0.69609233,0.24036031 -0.72696249,-0.056230744 -0.4364754,0.03376149 -0.41723301,0.33770885 "
       id="polygon61" />
    <polygon
       fill="#ff3333"
       stroke="#000000"
       stroke-width="0.03"
       points="-0.41723301,0.33770885 -0.4364754,0.03376149 -0.1218187,0.13124141 -0.11623504,0.44278589 "
       id="polygon62" />
    <polygon
       fill="#ff3333"
       stroke="#000000"
       stroke-width="0.03"
       points="-0.11623504,0.44278589 -0.1218187,0.13124141 0.22015504,0.23718409 0.20964693,0.55654982 "
       id="polygon63" />
    <polygon
       fill="#ff3333"
       stroke="#000000"
       stroke-width="0.03"
       points="-0.66773715,0.51278821 -0.69609233,0.24036031 -0.41723301,0.33770885 -0.39961561,0.61598824 "
       id="polygon64" />
    <polygon
       fill="#ff3333"
       stroke="#000000"
       stroke-width="0.03"
       points="-0.39961561,0.61598824 -0.41723301,0.33770885 -0.11623504,0.44278589 -0.11114081,0.72702224 "
       id="polygon65" />
    <polygon
       fill="#ff3333"
       stroke="#000000"
       stroke-width="0.03"
       points="-0.11114081,0.72702224 -0.11623504,0.44278589 0.20964693,0.55654982 0.20009624,0.84681744 "
       id="polygon66" />
  </g>
  <path
     style="baseline-shift:baseline;display:inline;overflow:visible;opacity:1;fill:#e0e0e0;fill-opacity:1;stroke:#9a9a9a;stroke-width:1.5;stroke-linecap:round;stroke-dasharray:none;stroke-opacity:1;enable-background:accumulate;stop-color:#000000;stop-opacity:1"
     d="m 155.0327,53.425172 -2.6875,0.041 -2.70508,0.13281 -2.67774,0.21485 -2.6289,0.30664 -2.57032,0.38867 -2.5039,0.47266 -2.41016,0.55664 -2.30273,0.64062 -2.1875,0.71485 -2.0586,0.79492 -1.91601,0.87305 -1.76953,0.94921 -1.59571,1.0293 -1.40429,1.10742 -1.2168,1.19336 -1.00391,1.28711 -0.75976,1.38672 -0.48633,1.4668 -0.16992,1.5332 0.16992,1.53516 0.49609,1.50195 0.80079,1.4375 1.08007,1.33789 1.32227,1.26758 1.58789,1.18945 1.82031,1.10938 2.03516,1.01953 2.26562,0.94336 2.45313,0.84179 2.63476,0.75391 2.8125,0.64844 2.91016,0.52734 a 1.7,1.7 0 0 0 1.97461,-1.36914 1.7,1.7 0 0 0 -1.36914,-1.97656 l -2.83008,-0.51172 -2.64844,-0.61133 -2.46484,-0.70508 -2.26563,-0.77929 -2.05664,-0.85547 -1.80468,-0.90235 -1.5586,-0.95117 -1.29297,-0.96875 -1.01757,-0.97461 -0.75977,-0.9414 -0.5,-0.90039 -0.28516,-0.85938 -0.0879,-0.80664 0.0899,-0.80469 0.27343,-0.83398 0.48047,-0.87305 0.69727,-0.89258 0.92187,-0.90625 1.13477,-0.89453 1.3457,-0.86914 1.55078,-0.83008 1.72461,-0.78711 1.88086,-0.72656 2.03125,-0.66406 2.15625,-0.59961 2.27149,-0.52344 2.375,-0.44726 2.45117,-0.3711 2.50976,-0.29297 2.56446,-0.20703 2.59375,-0.12695 2.63086,-0.0391 a 1.7,1.7 0 0 0 1.67578,-1.72461 1.7,1.7 0 0 0 -1.72656,-1.67578 z"
     id="path67" />
  <path
     id="polygon68"
     style="fill:#d4d4d4;fill-opacity:1;stroke:#a5a5a5;stroke-width:1.5;stroke-dasharray:none;stroke-opacity:1"
     d="m 144.13407,77.24824 -1.20672,7.00341 13.93828,-2.554223 z"
     sodipodi:nodetypes="cccc" />
  <path
     style="baseline-shift:baseline;display:inline;overflow:visible;fill:#0066ff;fill-opacity:1;stroke:#003399;stroke-width:1.491;stroke-linecap:round;stroke-dasharray:none;stroke-opacity:1;enable-background:accumulate;stop-color:#000000"
     d="m 201.24695,127.86566 0.87742,-2.16573 0.80973,-2.23385 0.73462,-2.26044 0.64442,-2.27568 0.55874,-2.27739 0.46877,-2.27404 0.36991,-2.24871 0.26588,-2.21279 0.1673,-2.16468 0.0593,-2.10929 -0.0516,-2.04167 -0.16243,-1.96993 -0.28555,-1.878632 -0.41312,-1.77221 -0.5456,-1.67348 -0.69295,-1.55911 -0.85563,-1.42337 -1.01248,-1.25272 -1.17298,-1.03973 -1.28969,-0.77009 -1.37348,-0.49061 -1.425,-0.20981 -1.43964,0.0716 -1.46527,0.30597 -1.49252,0.56374 -1.507,0.79611 -1.50765,1.02035 -1.5246,1.2489 -1.50661,1.45823 -1.49756,1.65481 -1.47315,1.85864 -1.40903,2.007872 a 1.7855159,1.3585395 59.412697 0 0 0.42996,2.38103 1.7855159,1.3585395 59.412697 0 0 2.05017,0.0749 l 1.36936,-1.9533 1.38778,-1.749792 1.40085,-1.5482 1.39291,-1.3457 1.38326,-1.13423 1.33556,-0.90579 1.29135,-0.68093 1.21551,-0.45887 1.12687,-0.23599 1.01295,-0.0501 0.89202,0.13266 0.78633,0.27974 0.6772,0.4056 0.61538,0.54626 0.57672,0.7098 0.53797,0.89781 0.48018,1.08209 0.41506,1.26912 0.33357,1.43187 0.24171,1.584962 0.1409,1.72533 0.0476,1.83853 -0.0543,1.92716 -0.1551,2.01029 -0.24913,2.07186 -0.34972,2.11858 -0.44558,2.15631 -0.53247,2.17206 -0.61504,2.17267 -0.70251,2.16558 -0.77675,2.14167 -0.85977,2.11945 a 1.7855159,1.3585395 59.412697 0 0 0.81651,2.35257 1.7855159,1.3585395 59.412697 0 0 1.92984,-0.38733 z"
     id="path67-6" />
  <path
     id="polygon68-7"
     style="fill:#0066ff;fill-opacity:1;stroke:#003399;stroke-width:1.5;stroke-dasharray:none;stroke-opacity:1"
     d="m 186.86562,104.97356 -6.74636,-7.204502 -2.41537,14.366692 z"
     sodipodi:nodetypes="cccc" />
  <circle
     cx="154.99309"
     cy="67.56292"
     fill="#555555"
     stroke="#ffffff"
     stroke-width="1.60104"
     id="circle68"
     r="8.9657974"
     style="fill:#9a9a9a;fill-opacity:1;stroke-width:1.701;stroke-dasharray:none" />
  <circle
     cx="190.42516"
     cy="117.20027"
     r="9.8310509"
     fill="#003399"
     stroke="#ffffff"
     stroke-width="1.75554"
     id="circle67"
     style="fill:#003399;fill-opacity:1;stroke-width:1.756;stroke-dasharray:none" />
  <text
     x="190.42516"
     y="121.06246"
     text-anchor="middle"
     font-family="Arial, sans-serif"
     font-size="11.2355px"
     font-weight="bold"
     fill="#ffffff"
     id="text67"
     style="stroke-width:0.702218">R'</text>
  <text
     x="154.99309"
     y="71.085197"
     text-anchor="middle"
     font-family="Arial, sans-serif"
     font-size="10.2466px"
     font-weight="bold"
     fill="#ffffff"
     id="text68"
     style="stroke-width:0.640414">U'</text>
  <path
     style="baseline-shift:baseline;display:inline;overflow:visible;opacity:1;fill:#ff3333;fill-opacity:1;stroke:#cc0000;stroke-width:1.5;stroke-linecap:round;stroke-dasharray:none;stroke-opacity:1;enable-background:accumulate;stop-color:#000000;stop-opacity:1"
     d="m 154.31489,112.66058 a 2,2 0 0 0 -1.0254,2.63476 l 1.19922,2.73438 0.95118,2.67969 0.71875,2.65039 0.49023,2.60156 0.26172,2.51562 0.0293,2.42579 -0.18555,2.31054 -0.39258,2.17188 -0.60547,2.01367 -0.78906,1.85156 -0.96289,1.68164 -1.12695,1.50781 -1.28321,1.31641 -1.43554,1.14649 -1.55665,0.95703 -1.69921,0.76172 -1.8086,0.58203 -1.91601,0.38672 -2.02149,0.1914 h -2.09179 l -2.15821,-0.20312 -2.20703,-0.41016 -2.23437,-0.58984 -2.25196,-0.78321 -2.2539,-0.96484 -2.22852,-1.13867 -2.19336,-1.31641 -2.15039,-1.46289 -2.08789,-1.61719 -2.01367,-1.74414 -1.91602,-1.8789 -1.85156,-2.0293 a 2,2 0 0 0 -2.82617,-0.12891 2,2 0 0 0 -0.12891,2.82618 l 1.92774,2.11132 2.08398,2.04102 2.1875,1.89648 2.27149,1.76172 2.3496,1.59766 2.40625,1.44336 2.47071,1.26172 2.50781,1.07422 2.52734,0.8789 2.52539,0.66797 2.53321,0.4707 2.52148,0.23633 h 2.46875 l 2.41797,-0.22851 2.34375,-0.47266 2.23242,-0.71875 2.13867,-0.95898 1.98438,-1.22266 1.82422,-1.45313 1.63867,-1.68359 1.43164,-1.91211 1.19727,-2.09766 0.9707,-2.26953 0.73437,-2.44531 0.4668,-2.58789 0.2168,-2.69141 -0.0332,-2.79296 -0.29688,-2.86329 -0.55078,-2.91992 -0.80078,-2.94922 -1.04883,-2.95898 -1.25977,-2.86719 a 2,2 0 0 0 -2.63671,-1.02734 z"
     id="path68" />
  <path
     id="polygon69"
     style="fill:#ff3333;stroke:#cc0000;stroke-width:1.5;stroke-dasharray:none"
     d="m 151.09641,117.75844 8.90744,-5.57843 -11.71378,-8.55176 z"
     sodipodi:nodetypes="cccc" />
  <circle
     cx="133.23303"
     cy="123.83941"
     r="10.093775"
     fill="#cc0000"
     stroke="#ffffff"
     stroke-width="2.81452"
     id="circle69"
     style="stroke-width:1.7;stroke-dasharray:none" />
  <text
     x="133.23303"
     y="127.8048"
     text-anchor="middle"
     font-family="Arial, sans-serif"
     font-size="11.5357px"
     font-weight="bold"
     fill="#ffffff"
     id="text69"
     style="stroke-width:0.720984">F'</text>
  <path
     style="baseline-shift:baseline;display:inline;overflow:visible;opacity:1;fill:#00aa44;fill-opacity:1;stroke:#006633;stroke-width:1.5;stroke-linecap:round;stroke-dasharray:none;stroke-opacity:1;enable-background:accumulate;stop-color:#000000;stop-opacity:1"
     d="m 69.285151,51.900622 -1.94336,0.11328 -1.95703,0.35157 -1.96484,0.58398 -1.93359,0.82227 -1.89844,1.03125 -1.85352,1.2539 -1.79297,1.45899 -1.70898,1.64257 -1.61328,1.82618 -1.51953,1.99804 -1.38672,2.13868 -1.26367,2.26562 -1.12696,2.38086 -0.97851,2.4707 -0.80078,2.48242 a 2,2 0 0 0 1.29101,2.51758 2,2 0 0 0 2.51758,-1.29101 l 0.75977,-2.35742 0.88086,-2.22852 1.01367,-2.14063 1.13476,-2.03515 1.23438,-1.90039 1.33984,-1.76172 1.4082,-1.5957 1.47071,-1.41407 1.52734,-1.24218 1.54688,-1.04688 1.56054,-0.84766 1.54688,-0.6582 1.53515,-0.45508 1.50196,-0.26953 1.45703,-0.0859 1.4043,0.0918 1.35156,0.27149 1.30469,0.43164 1.24609,0.59375 1.17578,0.75 1.10156,0.90234 1.03711,1.06445 0.94727,1.20313 0.86719,1.3418 0.75781,1.46093 0.6582,1.58008 0.552742,1.69336 0.43359,1.76953 0.31641,1.85156 0.19726,1.92383 0.0859,1.97461 -0.0488,2.05469 a 2,2 0 0 0 1.95117,2.04687 2,2 0 0 0 2.04688,-1.95312 l 0.0527,-2.18555 -0.0957,-2.22656 -0.22266,-2.17578 -0.36328,-2.12695 -0.50586,-2.05274 -0.64648,-1.98437 -0.78321,-1.88086 -0.92382,-1.7793 -1.07227,-1.6582 -1.191412,-1.51758 -1.34179,-1.375 -1.45899,-1.19727 -1.58398,-1.00976 -1.69531,-0.80664 -1.77344,-0.58789 -1.84961,-0.36914 z"
     id="path69" />
  <path
     id="polygon70"
     style="fill:#00aa44;fill-opacity:1;stroke:#006633;stroke-width:1.5;stroke-dasharray:none;stroke-opacity:1"
     d="m 80.317539,76.646679 1.521884,12.159043 6.4786,-10.472759 z"
     sodipodi:nodetypes="cccc" />
  <ellipse
     cx="65.829979"
     cy="79.732811"
     fill="#006633"
     stroke="#ffffff"
     stroke-width="3.22432"
     id="circle70"
     rx="9.5082226"
     ry="9.7652702"
     style="stroke-width:1.724;stroke-dasharray:none" />
  <text
     x="66.713882"
     y="82.462013"
     text-anchor="middle"
     font-family="Arial, sans-serif"
     font-size="11.0125px"
     font-weight="bold"
     fill="#ffffff"
     id="text70"
     style="stroke-width:0.688278"
     transform="scale(0.9867509,1.013427)">L'</text>
  <path
     style="baseline-shift:baseline;display:inline;overflow:visible;opacity:1;fill:#ffd700;fill-opacity:1;stroke:#b8960f;stroke-width:1.5;stroke-linecap:round;stroke-dasharray:none;stroke-opacity:1;enable-background:accumulate;stop-color:#000000;stop-opacity:1"
     d="m 150.41253,178.09569 -2.05274,0.58789 -2.05859,0.73633 -1.99023,0.87695 -1.88282,0.9961 -1.78711,1.10742 -1.68359,1.23828 -1.53516,1.35156 -1.41015,1.45508 -1.24805,1.55664 -1.08984,1.65625 -0.89649,1.73633 -0.70703,1.80469 -0.50781,1.86718 -0.28516,1.91016 -0.0684,1.92969 0.16016,1.94531 0.39648,1.94141 0.6211,1.89257 0.8418,1.85157 1.07031,1.79492 1.26953,1.70117 1.45898,1.60352 1.66016,1.50586 1.83203,1.37695 1.98242,1.23828 2.13477,1.10547 2.2539,0.93945 2.35743,0.78516 2.4414,0.62695 2.51563,0.44531 2.55859,0.26563 2.50586,0.0918 a 2,2 0 0 0 2.07227,-1.92383 2,2 0 0 0 -1.92578,-2.07422 l -2.37305,-0.0859 -2.2832,-0.23633 -2.22461,-0.39453 -2.15821,-0.55273 -2.08203,-0.69532 -1.9668,-0.82031 -1.84375,-0.95508 -1.69921,-1.06054 -1.54688,-1.16211 -1.38086,-1.25391 -1.20117,-1.31836 -1.0293,-1.3789 -0.84961,-1.42579 -0.6582,-1.44726 -0.48047,-1.4668 -0.30273,-1.48047 -0.1211,-1.47265 0.0527,-1.47071 0.21484,-1.45117 0.39063,-1.43164 0.55468,-1.41406 0.70313,-1.36524 0.87109,-1.32226 1.01172,-1.26367 1.16992,-1.20508 1.28321,-1.13086 1.41797,-1.04102 1.5332,-0.95117 1.63672,-0.86523 1.72851,-0.76172 1.80274,-0.64453 1.92773,-0.55274 a 2,2 0 0 0 1.3711,-2.47265 2,2 0 0 0 -2.47266,-1.37305 z"
     id="path70" />
  <path
     id="polygon71"
     style="fill:#ffd700;fill-opacity:1;stroke:#b8960f;stroke-width:1.5;stroke-dasharray:none;stroke-opacity:1"
     d="m 151.71717,175.0064 0.93918,10.30638 11.48812,-6.8546 z"
     sodipodi:nodetypes="cccc" />
  <circle
     cx="155.07877"
     cy="198.46036"
     r="9.2407475"
     fill="#b8960f"
     stroke="#ffffff"
     stroke-width="2.71984"
     id="circle71"
     style="stroke-width:1.7;stroke-dasharray:none" />
  <text
     x="155.07877"
     y="202.0907"
     text-anchor="middle"
     font-family="Arial, sans-serif"
     font-size="10.5609px"
     font-weight="bold"
     fill="#ffffff"
     id="text71"
     style="stroke-width:0.660053">D'</text>
</svg>
